<svg version="1.1" id="Layer_1" xmlns="http://www.w3.org/2000/svg" xmlns:xlink="http://www.w3.org/1999/xlink" x="0px" y="0px"
	 width="100%" viewBox="0 0 1536 1024" enable-background="new 0 0 1536 1024" xml:space="preserve">
<path fill="#FFFFFF" opacity="1.000000" stroke="none" 
	d="
M973.000000,1025.000000 
	C648.666687,1025.000000 324.833344,1025.000000 1.000000,1025.000000 
	C1.000000,683.666687 1.000000,342.333344 1.000000,1.000000 
	C513.000000,1.000000 1025.000000,1.000000 1537.000000,1.000000 
	C1537.000000,342.333344 1537.000000,683.666687 1537.000000,1025.000000 
	C1349.166626,1025.000000 1161.333374,1025.000000 973.000000,1025.000000 
M322.035370,420.574921 
	C322.338959,420.791443 322.642548,421.007965 323.057617,421.661346 
	C323.245453,421.934784 323.505005,422.062927 324.162750,422.604004 
	C325.035309,423.196259 325.907837,423.788544 326.752869,424.227020 
	C326.752869,424.227020 326.640991,424.336121 326.922119,424.862793 
	C327.584900,425.296936 328.247650,425.731079 328.928650,426.077759 
	C328.928650,426.077759 328.840881,426.094604 329.138123,426.639130 
	C329.688721,426.893951 330.239319,427.148773 330.745331,427.260162 
	C330.745331,427.260162 330.656433,427.381195 330.993317,427.918793 
	C331.914307,428.417480 332.835327,428.916199 333.794464,429.276520 
	C333.794464,429.276520 333.668793,429.345917 334.034607,429.900421 
	C343.516449,436.207550 354.183990,439.093140 364.299957,441.119659 
	C361.205292,441.715729 358.081726,442.191437 355.020447,442.926666 
	C326.651337,449.739899 305.303406,472.303680 301.035187,499.921783 
	C296.488403,529.342407 308.687775,556.512634 333.128265,571.446289 
	C343.093933,577.535522 354.025208,580.575806 364.621460,581.944031 
	C363.159454,582.262146 361.705902,582.627563 360.234131,582.891479 
	C323.721954,589.438110 292.083740,626.497864 301.871857,668.880981 
	C310.163116,704.782837 346.409027,728.014954 382.074585,720.333801 
	C414.918274,713.260376 441.686310,681.735413 443.735168,644.706970 
	C444.892670,623.787109 443.864777,602.746399 443.921722,581.375366 
	C443.921722,581.375366 443.844116,580.985352 443.982574,580.059204 
	C444.014832,533.778320 444.047089,487.497375 444.996490,441.090057 
	C463.626251,441.092529 482.256012,441.095001 500.034149,441.518585 
	C489.995605,442.264496 480.970551,445.767395 472.807678,451.576904 
	C445.262665,471.180664 438.113708,512.915039 457.745483,541.168640 
	C470.973450,560.205994 489.590942,568.670288 512.469055,565.667236 
	C547.969543,561.007263 569.474976,526.199402 561.494202,491.086761 
	C557.406372,473.101562 546.825195,459.710785 531.271973,450.060120 
	C522.459473,444.591980 512.663879,442.304993 503.345062,440.473480 
	C505.153992,440.212646 506.987335,440.063629 508.768219,439.674530 
	C547.567566,431.197601 572.295105,392.900848 564.031128,354.123169 
	C558.248291,326.987823 533.414795,302.840851 505.850586,300.354340 
	C485.021118,298.475372 463.931824,299.476898 442.486908,299.060913 
	C442.486908,299.060913 442.006927,299.161407 441.500031,299.025543 
	C441.332001,299.074158 441.163971,299.122742 440.065887,299.052643 
	C417.265198,299.099121 394.461700,298.952454 371.665039,299.279358 
	C361.374878,299.426910 351.191284,300.927307 341.970642,305.974945 
	C341.970642,305.974945 341.977570,305.898621 341.362183,305.973297 
	C340.858826,306.288727 340.355499,306.604156 339.945984,306.934357 
	C339.945984,306.934357 339.934082,306.840149 339.464264,306.918915 
	C339.464264,306.918915 339.040833,307.137207 338.354309,307.234009 
	C329.270660,312.287262 321.052887,318.363434 314.678894,327.244019 
	C314.678894,327.244019 314.565643,327.633240 314.592316,327.781067 
	C314.592316,327.781067 314.644867,327.640350 314.127472,327.932190 
	C313.712982,328.602478 313.298492,329.272766 312.967346,329.960968 
	C312.967346,329.960968 312.936127,329.881653 312.405762,330.222595 
	C311.904175,331.132751 311.402588,332.042908 310.980347,332.968384 
	C310.980347,332.968384 310.948944,332.893951 310.460571,333.262573 
	C310.235748,333.825623 310.010895,334.388641 309.918610,334.942566 
	C309.918610,334.942566 309.878693,334.815857 309.286835,335.192413 
	C301.994781,347.845612 298.453583,361.606476 300.259949,375.982513 
	C301.298065,384.244324 305.101654,392.158600 307.582520,400.192780 
	C307.582520,400.192780 307.552216,400.273224 307.586700,400.929199 
	C308.033600,401.663055 308.480499,402.396912 308.951416,403.047272 
	C308.951416,403.047272 308.866791,403.066986 308.997284,403.732208 
	C309.965240,405.208282 310.933167,406.684326 311.918793,408.071686 
	C311.918793,408.071686 311.830658,408.092133 312.015930,408.691650 
	C312.658295,409.496918 313.300629,410.302185 313.977905,411.030731 
	C313.977905,411.030731 313.896454,411.052551 314.101959,411.648865 
	C314.906250,412.561157 315.710541,413.473450 316.624512,414.387451 
	C316.624512,414.387451 316.555878,414.301941 316.668610,414.890747 
	C317.088867,415.303528 317.509125,415.716339 317.956024,416.040436 
	C317.956024,416.040436 317.863831,416.032013 318.065094,416.553070 
	C318.360474,416.771484 318.655853,416.989899 319.107880,417.729492 
	C319.662689,418.172699 320.217499,418.615936 321.023895,419.567291 
	C321.335327,419.769135 321.646790,419.971008 321.963013,420.035217 
	C321.963013,420.035217 321.825775,420.046570 322.035370,420.574921 
M989.011353,476.992950 
	C989.011353,476.992950 989.015259,477.031158 989.692444,476.908813 
	C991.125122,476.221771 992.557861,475.534729 994.624756,474.932739 
	C995.408936,474.602112 996.193054,474.271454 997.651123,474.047546 
	C998.100830,473.995361 998.550598,473.943176 999.825684,474.031128 
	C1001.216980,473.984894 1002.608276,473.938660 1004.740234,474.036255 
	C1005.493286,474.024780 1006.246277,474.013275 1007.597473,474.365997 
	C1009.377869,474.945038 1011.158203,475.524078 1012.962646,476.010498 
	C1012.962646,476.010498 1012.891052,476.073944 1013.221802,476.613342 
	C1014.131775,477.118774 1015.041809,477.624207 1016.212463,478.696533 
	C1017.418152,479.819550 1018.623840,480.942566 1020.015442,482.677734 
	C1020.636719,483.505493 1021.258057,484.333252 1021.948792,485.058502 
	C1021.948792,485.058502 1021.836304,485.110199 1021.928955,485.904205 
	C1022.865601,490.890106 1024.534302,495.864899 1024.610474,500.863922 
	C1024.919312,521.139954 1024.738770,541.423401 1024.738770,561.723328 
	C1032.562500,561.723328 1040.112793,561.723328 1047.814697,561.723328 
	C1047.814697,540.787354 1047.925049,520.172302 1047.748413,499.559662 
	C1047.694336,493.239197 1048.695679,487.391235 1052.799072,481.838379 
	C1053.888184,480.616333 1054.977295,479.394257 1056.757935,477.933685 
	C1059.830322,476.600861 1062.902832,475.268036 1066.648438,474.053528 
	C1067.098999,474.000305 1067.549561,473.947113 1068.792847,474.033234 
	C1069.861816,473.986694 1070.930664,473.940186 1072.744629,474.034943 
	C1073.500732,474.010315 1074.256958,473.985687 1075.665527,474.247437 
	C1078.756348,475.552429 1081.847168,476.857452 1085.162476,478.719604 
	C1086.060913,479.497681 1086.959473,480.275757 1088.022705,481.614166 
	C1088.400269,482.057495 1088.777832,482.500824 1089.325317,483.678467 
	C1090.381714,488.776794 1092.170898,493.849457 1092.350342,498.978424 
	C1092.798828,511.795746 1092.519409,524.638611 1092.527100,537.471252 
	C1092.531982,545.585327 1092.527954,553.699341 1092.527954,561.734009 
	C1100.517822,561.734009 1108.100952,561.734009 1115.799316,561.734009 
	C1115.799316,538.447205 1116.011719,515.469727 1115.692993,492.499634 
	C1115.568359,483.523987 1113.265381,474.914917 1106.840820,467.252441 
	C1104.575562,465.123840 1102.310181,462.995239 1099.799805,460.314301 
	C1099.223022,460.159546 1098.646118,460.004791 1097.842407,459.213684 
	C1091.323975,454.511169 1084.069336,452.077393 1075.214478,451.970642 
	C1074.140137,452.023163 1073.065796,452.075653 1071.144897,451.994629 
	C1063.793213,452.565277 1056.882202,454.426758 1050.952759,458.963623 
	C1050.952759,458.963623 1050.924683,458.870209 1050.271118,458.952179 
	C1049.479126,459.613739 1048.687256,460.275299 1047.971069,460.985687 
	C1047.971069,460.985687 1047.942627,460.900055 1047.305542,461.112427 
	C1045.177246,463.399719 1043.049072,465.686981 1040.344116,468.251160 
	C1037.233887,465.657043 1034.219238,462.937103 1030.997314,460.490173 
	C1015.210327,448.500549 991.956116,449.108154 978.342468,462.013336 
	C977.832764,462.654266 977.323059,463.295197 976.123779,463.905731 
	C975.902893,463.970093 975.682068,464.034424 975.542664,463.218658 
	C974.798462,460.902222 977.954224,457.742706 973.082642,455.964508 
	C967.717041,456.013611 962.351379,456.062714 956.414612,456.036530 
	C956.299927,456.353790 956.185303,456.671021 955.925903,457.917267 
	C955.983887,491.947052 956.041870,525.976868 955.967346,560.887573 
	C956.238525,561.230652 956.507507,561.871338 956.781311,561.873413 
	C964.046692,561.928040 971.312439,561.916809 978.924011,561.916809 
	C978.924011,560.141479 978.923828,558.688660 978.924133,557.235840 
	C978.928162,537.781982 978.724792,518.324402 979.079651,498.876953 
	C979.170227,493.915039 981.029663,488.985413 982.000732,484.022522 
	C982.000732,484.022522 982.048401,484.084076 982.595520,483.766205 
	C983.137207,482.869598 983.678894,481.972992 984.741821,480.908234 
	C985.189758,480.353668 985.637695,479.799133 986.664856,479.008972 
	C987.456299,478.346039 988.247681,477.683136 989.011353,476.992950 
M838.281250,469.320923 
	C838.281250,469.320923 838.140564,469.613312 837.705444,470.016052 
	C836.783997,471.333710 835.862610,472.651337 835.005859,473.982117 
	C835.005859,473.982117 834.962402,473.932434 834.385010,474.306427 
	C821.444946,495.770721 822.770752,518.379150 838.170776,536.593994 
	C839.097412,537.401184 840.024048,538.208435 841.226135,539.612549 
	C842.805115,540.764587 844.384094,541.916626 845.978516,542.997559 
	C845.978516,542.997559 845.922668,543.044128 846.274841,543.609192 
	C847.825684,544.448120 849.376465,545.287048 850.950745,546.032410 
	C850.950745,546.032410 850.869019,546.083740 851.249207,546.689697 
	C859.647034,551.081604 868.574036,552.744751 878.658447,552.030884 
	C879.108337,551.977295 879.558167,551.923706 880.829102,551.990479 
	C886.245300,550.008301 891.661499,548.026184 897.021667,545.997620 
	C897.021667,545.997620 897.037109,546.068665 897.655090,545.939331 
	C898.912964,544.894531 900.170898,543.849792 901.666443,542.653076 
	C901.666443,542.653076 901.807861,542.409058 902.197205,542.028748 
	C902.784058,541.692810 903.370911,541.356873 903.938477,541.774780 
	C903.981506,542.523682 904.024597,543.272522 903.904846,544.803894 
	C903.320251,550.866272 902.735657,556.928711 901.891968,563.648010 
	C892.290344,586.602112 859.991089,586.474121 841.148376,565.554504 
	C836.539062,571.775330 831.976318,577.933228 827.474670,584.008728 
	C845.331970,597.719055 864.094543,605.452209 886.609131,602.200134 
	C902.140198,599.956726 918.397888,587.737427 923.624268,572.572571 
	C924.703125,568.384583 925.781982,564.196655 927.039551,559.346191 
	C927.011841,558.892151 926.984131,558.438049 927.251099,557.219543 
	C927.503418,548.753479 927.937683,540.288147 927.973267,531.821167 
	C928.073181,508.021973 928.043518,484.221954 927.923706,460.423004 
	C927.916504,458.987183 926.674927,457.557617 925.342224,455.968414 
	C924.892273,456.019440 924.442261,456.070465 923.064575,455.986877 
	C902.850159,455.911255 902.850159,455.911255 901.577209,458.166321 
	C883.160156,449.365509 865.234497,449.086975 847.979126,460.998047 
	C847.979126,460.998047 847.957214,460.922028 847.327942,461.079987 
	C846.191345,462.044464 845.054749,463.008911 843.333923,464.144440 
	C842.533936,465.033264 841.733887,465.922058 840.410522,467.035675 
	C839.792969,467.740845 839.175354,468.445984 838.281250,469.320923 
M1161.412476,558.655518 
	C1161.412476,558.655518 1161.624512,558.753174 1162.204102,559.064087 
	C1168.466675,560.999634 1174.729248,562.935181 1181.738647,565.037170 
	C1182.499390,565.005554 1183.260132,564.973938 1184.617188,565.135986 
	C1186.067749,565.065552 1187.518433,564.995178 1189.647095,565.058960 
	C1190.100830,564.995422 1190.554565,564.931824 1191.830688,564.995178 
	C1198.258911,562.687195 1204.687134,560.379272 1211.036743,558.020325 
	C1211.036743,558.020325 1211.063354,558.109985 1211.696777,557.946594 
	C1212.850830,556.986023 1214.005005,556.025452 1215.758057,554.867554 
	C1216.859863,553.626160 1217.961670,552.384766 1219.601318,551.080383 
	C1219.779175,551.388306 1219.957031,551.696228 1219.996094,552.916870 
	C1219.996094,555.854309 1219.996094,558.791809 1219.996094,561.812378 
	C1227.692993,561.812378 1234.943726,561.812378 1242.278442,561.812378 
	C1242.278442,526.454224 1242.278442,491.303986 1242.278442,456.204285 
	C1234.658691,456.204285 1227.382080,456.204285 1219.695068,456.204285 
	C1219.695068,458.983185 1219.695068,461.525574 1219.695068,464.389801 
	C1218.178589,463.345184 1217.110474,462.609497 1215.807739,461.312225 
	C1215.227173,461.158142 1214.646729,461.004059 1213.812012,460.218018 
	C1196.519043,447.798706 1170.577881,449.414124 1153.397217,464.030304 
	C1153.076416,464.177002 1152.918213,464.426697 1152.308960,465.044342 
	C1150.806396,466.673187 1149.303833,468.302032 1147.189087,470.190887 
	C1134.746948,485.401978 1131.565430,502.789093 1135.590088,521.627747 
	C1138.564575,535.551392 1144.330811,547.942810 1157.532349,556.272583 
	C1158.768555,557.014038 1160.004883,557.755493 1161.412476,558.655518 
M779.113525,455.986023 
	C778.739075,457.418976 778.040588,458.851318 778.037903,460.284973 
	C777.975952,492.901855 777.986755,525.518860 778.002014,558.135864 
	C778.002625,559.394348 778.183228,560.652710 778.288086,562.017700 
	C785.122803,562.017700 791.604492,562.098999 798.079590,561.928162 
	C799.026855,561.903137 799.942383,560.677795 801.029907,559.081177 
	C800.977783,525.048950 800.925659,491.016754 800.944214,456.437927 
	C800.635559,456.330444 800.326843,456.222961 799.089539,455.966492 
	C792.723999,456.014740 786.358459,456.062958 779.113525,455.986023 
M738.088928,470.957520 
	C721.392456,470.972168 704.695984,470.986816 687.505310,470.178955 
	C687.505310,457.237274 687.505310,444.295563 687.505310,430.839752 
	C709.154785,430.839752 730.541443,430.839752 751.703003,430.839752 
	C751.703003,422.405365 751.703003,414.489594 751.703003,406.599426 
	C721.313171,406.599426 691.241455,406.599426 661.149719,406.599426 
	C661.149719,458.466675 661.149719,510.048523 661.149719,561.824829 
	C669.936829,561.824829 678.521118,561.824829 687.457458,561.824829 
	C687.457458,560.851379 687.457703,560.060425 687.457397,559.269470 
	C687.450745,539.445679 687.431335,519.621887 687.461243,499.798126 
	C687.463684,498.189331 687.804382,496.581055 688.924500,495.042542 
	C705.285706,494.987732 721.646851,494.932922 738.728149,495.007782 
	C739.109070,494.341370 739.489990,493.674957 740.027039,492.081818 
	C739.977844,485.382843 739.928589,478.683868 739.951355,471.436218 
	C739.640137,471.327209 739.328857,471.218170 738.088928,470.957520 
M798.410400,405.915009 
	C792.128479,401.968506 785.827332,401.931976 779.903809,406.419678 
	C774.624634,410.419250 772.031006,415.904480 773.414978,422.573120 
	C775.025146,430.331604 781.047729,435.428253 788.604492,435.983337 
	C795.143555,436.463623 801.878784,432.324432 804.523865,426.200043 
	C807.696960,418.853058 805.871277,412.232941 798.410400,405.915009 
z"/>
<path fill="#7E5FFF" opacity="1.000000" stroke="none" 
	d="
M365.537720,581.814209 
	C354.025208,580.575806 343.093933,577.535522 333.128265,571.446289 
	C308.687775,556.512634 296.488403,529.342407 301.035187,499.921783 
	C305.303406,472.303680 326.651337,449.739899 355.020447,442.926666 
	C358.081726,442.191437 361.205292,441.715729 365.046021,440.921356 
	C391.787170,440.774048 417.782227,440.825043 443.838379,440.973877 
	C443.899506,441.071777 444.079315,441.216461 444.079346,441.216461 
	C444.047089,487.497375 444.014832,533.778320 443.538452,580.537964 
	C441.451965,581.216064 439.809601,581.415344 437.782227,581.646729 
	C436.883698,581.648987 436.370178,581.619202 435.661194,581.440552 
	C434.684967,581.386353 433.904205,581.481018 432.740631,581.611572 
	C431.845886,581.632446 431.334015,581.617493 430.630188,581.457886 
	C429.680420,581.417053 428.922546,581.520813 427.779053,581.657471 
	C426.878296,581.667664 426.363251,581.644958 425.530212,581.451538 
	C422.522675,581.398438 419.833099,581.516113 416.667603,581.666504 
	C407.744843,581.666443 399.298004,581.633667 390.786377,581.507996 
	C390.476807,581.306824 390.290894,581.367920 389.768494,581.633057 
	C388.844696,581.647522 388.316315,581.627258 387.601715,581.462158 
	C386.671234,581.424133 385.926910,581.530762 384.739166,581.675293 
	C383.109924,581.686218 381.924133,581.659241 380.705292,581.545349 
	C380.459473,581.363953 380.322510,581.424255 379.815613,581.680298 
	C378.177185,581.697083 376.984528,581.672913 375.540894,581.486206 
	C373.924713,581.450867 372.559448,581.578003 370.798126,581.740112 
	C369.872437,581.755432 369.342865,581.735840 368.692627,581.579346 
	C368.172241,581.547302 367.772461,581.652100 367.064972,581.794312 
	C366.350739,581.825867 365.944244,581.820007 365.537720,581.814209 
z"/>
<path fill="#FB5329" opacity="1.000000" stroke="none" 
	d="
M315.003296,327.000885 
	C321.052887,318.363434 329.270660,312.287262 338.809814,307.341064 
	C339.488220,307.245453 339.711151,307.042786 339.934082,306.840149 
	C339.934082,306.840149 339.945984,306.934357 340.223572,306.923096 
	C340.993317,306.574097 341.485443,306.236359 341.977570,305.898621 
	C341.977570,305.898621 341.970642,305.974945 342.347198,305.968445 
	C344.013367,305.725281 345.361481,305.654999 346.583221,305.225311 
	C355.595886,302.055756 364.836548,300.847656 374.405579,300.929047 
	C397.521149,301.125641 420.639832,300.955627 443.805511,301.403564 
	C443.851196,347.926086 443.848633,393.978455 443.391510,440.021790 
	C414.290649,438.522644 385.415314,443.303406 356.959808,436.980835 
	C351.846649,435.844727 346.895630,433.958160 341.897949,432.331482 
	C339.124756,431.428802 336.409943,430.346954 333.668793,429.345917 
	C333.668793,429.345917 333.794464,429.276520 333.749573,428.968689 
	C332.688599,428.234314 331.672516,427.807739 330.656433,427.381195 
	C330.656433,427.381195 330.745331,427.260162 330.704254,426.993103 
	C330.055756,426.515564 329.448303,426.305084 328.840881,426.094604 
	C328.840881,426.094604 328.928650,426.077759 328.913208,425.757324 
	C328.145508,425.069946 327.393250,424.703033 326.640991,424.336121 
	C326.640991,424.336121 326.752869,424.227020 326.735199,423.940979 
	C325.757111,423.118530 324.796692,422.582123 323.836273,422.045715 
	C323.505005,422.062927 323.245453,421.934784 322.905640,421.171326 
	C322.444397,420.469727 322.135101,420.258148 321.825775,420.046570 
	C321.825775,420.046570 321.963013,420.035217 321.852905,419.835388 
	C321.419312,419.443420 321.095825,419.251282 320.772308,419.059174 
	C320.217499,418.615936 319.662689,418.172699 318.930847,417.205048 
	C318.457153,416.464386 318.160492,416.248199 317.863831,416.032013 
	C317.863831,416.032013 317.956024,416.040436 317.941620,415.744324 
	C317.470093,415.066132 317.013000,414.684021 316.555878,414.301941 
	C316.555878,414.301941 316.624512,414.387451 316.709930,414.025970 
	C315.829041,412.793854 314.862732,411.923218 313.896454,411.052551 
	C313.896454,411.052551 313.977905,411.030731 313.972137,410.695740 
	C313.254486,409.604523 312.542572,408.848328 311.830658,408.092133 
	C311.830658,408.092133 311.918793,408.071686 311.942780,407.732391 
	C310.933441,405.951050 309.900116,404.509033 308.866791,403.066986 
	C308.866791,403.066986 308.951416,403.047272 308.955292,402.716858 
	C308.490173,401.682037 308.021210,400.977631 307.552216,400.273224 
	C307.552216,400.273224 307.582520,400.192780 307.739319,399.794250 
	C307.523560,397.475311 307.285492,395.516693 306.752808,393.641754 
	C305.241608,388.322388 302.702576,383.120514 302.207092,377.721954 
	C301.029175,364.887665 301.993896,352.182556 308.213531,340.405884 
	C309.104034,338.719696 309.339874,336.687775 309.878662,334.815857 
	C309.878693,334.815857 309.918610,334.942566 310.152130,334.819183 
	C310.573395,334.095184 310.761169,333.494568 310.948944,332.893951 
	C310.948944,332.893951 310.980347,332.968384 311.304474,332.937469 
	C312.064453,331.898254 312.500305,330.889954 312.936127,329.881653 
	C312.936127,329.881653 312.967346,329.960968 313.286102,329.933228 
	C313.951538,329.150421 314.298187,328.395386 314.644836,327.640350 
	C314.644867,327.640350 314.592316,327.781067 314.792145,327.770386 
	C315.128052,327.725616 315.264099,327.691498 315.400177,327.657379 
	C315.267883,327.438538 315.135590,327.219727 315.003296,327.000885 
z"/>
<path fill="#13D584" opacity="1.000000" stroke="none" 
	d="
M368.813263,581.716248 
	C369.342865,581.735840 369.872437,581.755432 371.174377,581.807739 
	C373.228424,581.776489 374.510132,581.712585 375.791840,581.648682 
	C376.984528,581.672913 378.177185,581.697083 379.933350,581.727295 
	C380.496796,581.733337 380.738342,581.632263 380.738342,581.632263 
	C381.924133,581.659241 383.109924,581.686218 385.058990,581.755554 
	C386.477478,581.734253 387.132690,581.670593 387.787903,581.606934 
	C388.316315,581.627258 388.844696,581.647522 389.938660,581.687622 
	C390.504211,581.707397 390.851196,581.600952 390.851196,581.600952 
	C399.298004,581.633667 407.744843,581.666443 417.090515,581.753418 
	C420.609009,581.745789 423.228577,581.684021 425.848175,581.622192 
	C426.363251,581.644958 426.878296,581.667664 428.104919,581.738708 
	C429.485016,581.725525 430.153564,581.664001 430.822113,581.602478 
	C431.334015,581.617493 431.845886,581.632446 433.074219,581.708374 
	C434.479340,581.709351 435.167999,581.649353 435.856659,581.589355 
	C436.370178,581.619202 436.883698,581.648987 438.168823,581.734985 
	C440.567352,581.780823 442.194275,581.770447 443.821228,581.760132 
	C443.864777,602.746399 444.892670,623.787109 443.735168,644.706970 
	C441.686310,681.735413 414.918274,713.260376 382.074585,720.333801 
	C346.409027,728.014954 310.163116,704.782837 301.871857,668.880981 
	C292.083740,626.497864 323.721954,589.438110 360.234131,582.891479 
	C361.705902,582.627563 363.159454,582.262146 365.079590,581.879150 
	C365.944244,581.820007 366.350739,581.825867 367.300262,581.849731 
	C368.178650,581.894714 368.501984,581.844177 368.813263,581.716248 
z"/>
<path fill="#FFA217" opacity="1.000000" stroke="none" 
	d="
M443.846069,440.030823 
	C443.848633,393.978455 443.851196,347.926086 443.781555,301.162567 
	C443.458954,300.033112 443.208557,299.614777 442.958160,299.196472 
	C463.931824,299.476898 485.021118,298.475372 505.850586,300.354340 
	C533.414795,302.840851 558.248291,326.987823 564.031128,354.123169 
	C572.295105,392.900848 547.567566,431.197601 508.768219,439.674530 
	C506.987335,440.063629 505.153992,440.212646 502.802368,440.744598 
	C501.801697,441.042999 501.343750,441.070251 500.885773,441.097504 
	C482.256012,441.095001 463.626251,441.092529 444.537903,441.153259 
	C444.079315,441.216461 443.899506,441.071777 443.901123,440.766205 
	C443.902771,440.460632 443.846069,440.030823 443.846069,440.030823 
z"/>
<path fill="#2F92FF" opacity="1.000000" stroke="none" 
	d="
M500.459961,441.308044 
	C501.343750,441.070251 501.801697,441.042999 502.404053,441.008423 
	C512.663879,442.304993 522.459473,444.591980 531.271973,450.060120 
	C546.825195,459.710785 557.406372,473.101562 561.494202,491.086761 
	C569.474976,526.199402 547.969543,561.007263 512.469055,565.667236 
	C489.590942,568.670288 470.973450,560.205994 457.745483,541.168640 
	C438.113708,512.915039 445.262665,471.180664 472.807678,451.576904 
	C480.970551,445.767395 489.995605,442.264496 500.459961,441.308044 
z"/>
<path fill="#171717" opacity="1.000000" stroke="none" 
	d="
M1098.069336,459.850006 
	C1098.646118,460.004791 1099.223022,460.159546 1099.930542,460.946594 
	C1102.391357,463.679718 1104.721313,465.780518 1107.051392,467.881317 
	C1113.265381,474.914917 1115.568359,483.523987 1115.692993,492.499634 
	C1116.011719,515.469727 1115.799316,538.447205 1115.799316,561.734009 
	C1108.100952,561.734009 1100.517822,561.734009 1092.527954,561.734009 
	C1092.527954,553.699341 1092.531982,545.585327 1092.527100,537.471252 
	C1092.519409,524.638611 1092.798828,511.795746 1092.350342,498.978424 
	C1092.170898,493.849457 1090.381714,488.776794 1089.445068,483.114319 
	C1088.995850,482.051392 1088.426880,481.552612 1087.857910,481.053864 
	C1086.959473,480.275757 1086.060913,479.497681 1085.023560,478.082581 
	C1082.093018,474.870544 1079.435669,471.915253 1075.013062,473.961060 
	C1074.256958,473.985687 1073.500732,474.010315 1072.306396,473.628479 
	C1070.241821,471.506683 1068.871582,471.264374 1068.000122,473.893921 
	C1067.549561,473.947113 1067.098999,474.000305 1066.072021,473.732239 
	C1061.428833,473.168915 1057.998535,474.187164 1056.066406,478.172211 
	C1054.977295,479.394257 1053.888184,480.616333 1052.152466,481.980469 
	C1047.430908,485.805695 1046.030518,490.596741 1046.016724,495.864136 
	C1045.971924,512.985291 1046.000000,530.106567 1046.000000,547.227844 
	C1046.000000,551.509521 1046.000000,555.791199 1046.000000,560.000000 
	C1040.875366,560.000000 1036.223267,559.669128 1031.640747,560.091125 
	C1026.856079,560.531677 1025.853638,558.632629 1025.904785,554.192993 
	C1026.126709,534.913330 1026.140503,515.627808 1025.883789,496.349060 
	C1025.831177,492.394806 1026.375000,487.688538 1021.836304,485.110199 
	C1021.836304,485.110199 1021.948792,485.058502 1021.942383,484.733521 
	C1021.233765,483.627563 1020.531616,482.846588 1019.829468,482.065613 
	C1018.623840,480.942566 1017.418152,479.819550 1016.045288,478.050598 
	C1014.882446,476.961090 1013.886780,476.517517 1012.891052,476.073944 
	C1012.891052,476.073944 1012.962646,476.010498 1012.917969,475.702515 
	C1010.915344,474.930267 1008.957336,474.466034 1006.999329,474.001831 
	C1006.246277,474.013275 1005.493286,474.024780 1004.296692,473.614441 
	C1001.929077,471.295959 1000.252319,471.117371 999.000305,473.890991 
	C998.550598,473.943176 998.100830,473.995361 997.128662,473.753540 
	C995.742859,473.627960 994.879456,473.796448 993.646118,473.977600 
	C991.855774,475.003906 990.435486,476.017517 989.015259,477.031128 
	C989.015259,477.031158 989.011353,476.992950 988.651855,477.020996 
	C987.556824,477.780853 986.821228,478.512695 986.085693,479.244568 
	C985.637695,479.799133 985.189758,480.353668 984.111572,481.008667 
	C983.003723,482.100739 982.526062,483.092407 982.048401,484.084076 
	C982.048401,484.084076 982.000732,484.022522 981.676636,484.062805 
	C979.900818,488.325958 977.317810,492.516571 977.196533,496.777313 
	C976.713196,513.746155 976.997009,530.736938 976.996765,547.719543 
	C976.996704,551.841003 976.996704,555.962463 976.996704,560.006653 
	C969.691223,560.006653 962.895508,560.006653 956.099792,560.006653 
	C956.041870,525.976868 955.983887,491.947052 956.201782,457.366791 
	C956.734863,456.644806 956.904236,456.409973 956.985779,456.111816 
	C962.351379,456.062714 967.717041,456.013611 973.538818,456.458313 
	C974.483765,459.334351 974.972473,461.716553 975.461182,464.098785 
	C975.682068,464.034424 975.902893,463.970093 976.825073,463.900940 
	C977.991211,463.188629 978.456055,462.481140 978.920898,461.773621 
	C991.956116,449.108154 1015.210327,448.500549 1030.997314,460.490173 
	C1034.219238,462.937103 1037.233887,465.657043 1040.998779,468.121765 
	C1043.749756,465.628265 1045.846191,463.264130 1047.942627,460.900024 
	C1047.942627,460.900055 1047.971069,460.985687 1048.303589,460.972839 
	C1049.398926,460.263397 1050.161865,459.566803 1050.924683,458.870209 
	C1050.924683,458.870209 1050.952759,458.963623 1051.300293,458.959808 
	C1058.101440,457.214355 1064.562134,455.497192 1070.993774,453.677612 
	C1071.437012,453.552216 1071.663940,452.662476 1071.991455,452.128174 
	C1073.065796,452.075653 1074.140137,452.023163 1075.699463,452.425568 
	C1076.536987,453.203857 1076.887451,453.806793 1077.242188,453.809418 
	C1084.571655,453.863190 1091.065430,456.282776 1096.953125,460.547791 
	C1097.086670,460.644501 1097.686890,460.096985 1098.069336,459.850006 
M1043.274170,511.880219 
	C1043.466553,512.424744 1043.659058,512.969238 1043.851562,513.513733 
	C1044.130615,513.386169 1044.409790,513.258545 1044.688843,513.130981 
	C1044.362549,512.570557 1044.036255,512.010132 1043.274170,511.880219 
M1044.314697,538.471863 
	C1043.975342,539.020020 1043.635986,539.568237 1043.296509,540.116394 
	C1043.571289,540.251587 1043.846069,540.386780 1044.120728,540.522034 
	C1044.326172,539.985107 1044.531616,539.448242 1044.314697,538.471863 
z"/>
<path fill="#171717" opacity="1.000000" stroke="none" 
	d="
M840.950684,539.015625 
	C840.024048,538.208435 839.097412,537.401184 838.072815,535.921509 
	C835.956421,531.117676 833.659485,527.096313 831.976624,522.832642 
	C828.278320,513.462769 826.200806,503.808899 829.001953,493.766357 
	C830.856323,487.118134 832.966675,480.541260 834.962402,473.932434 
	C834.962402,473.932434 835.005859,473.982117 835.342773,473.954163 
	C836.499939,472.488556 837.320251,471.050934 838.140564,469.613312 
	C838.140564,469.613312 838.281250,469.320923 838.757629,469.428497 
	C839.800598,468.627655 840.367249,467.719269 840.933838,466.810852 
	C841.733887,465.922058 842.533936,465.033264 844.000000,464.059631 
	C845.763062,462.957214 846.860168,461.939606 847.957214,460.922028 
	C847.957214,460.922028 847.979126,460.998047 848.333069,460.979980 
	C856.116943,458.811310 863.444580,456.147003 871.003052,454.641815 
	C880.199524,452.810455 889.159180,454.472382 897.640869,458.692963 
	C899.427185,459.581909 901.657959,459.577698 903.683899,459.985046 
	C904.079346,456.313049 906.819763,458.133057 908.561462,458.049286 
	C912.377136,457.865845 916.218140,458.152618 920.026794,457.906647 
	C921.381470,457.819153 922.672302,456.745178 923.992310,456.121521 
	C924.442261,456.070465 924.892273,456.019440 925.667603,456.507385 
	C925.993774,488.797058 925.978149,520.547729 926.036438,552.298340 
	C926.039917,554.194092 926.636047,556.088806 926.956482,557.984009 
	C926.984131,558.438049 927.011841,558.892151 926.592224,559.750488 
	C925.113098,564.443054 924.081360,568.731384 923.049561,573.019714 
	C918.397888,587.737427 902.140198,599.956726 886.609131,602.200134 
	C864.094543,605.452209 845.331970,597.719055 827.474670,584.008728 
	C831.976318,577.933228 836.539062,571.775330 841.148376,565.554504 
	C859.991089,586.474121 892.290344,586.602112 902.373657,563.316528 
	C903.743530,561.217651 905.279480,559.490723 905.392639,557.674988 
	C905.677612,553.104248 907.990662,548.209656 904.067627,544.021423 
	C904.024597,543.272522 903.981506,542.523682 904.181946,541.210632 
	C903.936951,540.281250 903.448425,539.915955 902.959961,539.550659 
	C902.575928,540.503479 902.191895,541.456238 901.807861,542.409058 
	C901.807861,542.409058 901.666443,542.653076 901.205200,542.531982 
	C899.508362,543.630066 898.272705,544.849365 897.037109,546.068665 
	C897.037109,546.068665 897.021667,545.997620 896.655457,546.020020 
	C892.281128,547.097107 888.231750,548.021484 884.285583,549.271851 
	C882.740417,549.761414 881.427002,550.982300 880.008057,551.870117 
	C879.558167,551.923706 879.108337,551.977295 878.240845,551.589600 
	C874.621826,550.521851 871.424805,549.872681 868.218262,549.273926 
	C862.438171,548.194641 856.652405,547.145447 850.869019,546.083740 
	C850.869019,546.083740 850.950745,546.032410 850.917725,545.716675 
	C849.230652,544.615356 847.576660,543.829773 845.922668,543.044128 
	C845.922668,543.044128 845.978516,542.997559 845.954834,542.671143 
	C844.270935,541.235046 842.610840,540.125366 840.950684,539.015625 
M849.588257,504.075073 
	C849.692200,504.732147 849.819092,505.386505 849.896790,506.046661 
	C851.437256,519.131287 861.117004,528.719238 874.664062,530.572083 
	C885.906128,532.109680 898.196350,524.317078 902.824768,512.716797 
	C907.689453,500.524536 904.169312,486.231079 894.208496,479.211670 
	C884.913452,472.661530 874.702881,471.907867 864.615356,476.820221 
	C853.846802,482.064117 849.563171,491.591003 849.588257,504.075073 
z"/>
<path fill="#171717" opacity="1.000000" stroke="none" 
	d="
M1157.046143,555.866943 
	C1144.330811,547.942810 1138.564575,535.551392 1135.590088,521.627747 
	C1131.565430,502.789093 1134.746948,485.401978 1147.858765,470.059479 
	C1149.993164,468.211853 1151.457886,466.495667 1152.922607,464.779480 
	C1152.918213,464.426697 1153.076416,464.177002 1154.030151,464.006531 
	C1156.566406,464.244843 1158.469849,464.506958 1160.373169,464.769073 
	C1160.140137,464.371307 1159.907104,463.973511 1159.674072,463.575745 
	C1160.857300,462.319794 1161.825317,460.384949 1163.262329,459.929413 
	C1168.531372,458.259064 1174.000366,457.231537 1179.313599,455.685120 
	C1190.164673,452.526794 1200.112183,454.436188 1209.558716,460.366730 
	C1210.708984,461.088867 1212.546875,460.715576 1214.066162,460.849976 
	C1214.646729,461.004059 1215.227173,461.158142 1215.912109,461.989105 
	C1217.160156,463.750732 1218.303711,464.835510 1219.447388,465.920288 
	C1220.733032,463.542297 1222.018799,461.164307 1223.720093,458.017578 
	C1228.518921,458.017578 1234.272705,458.017578 1240.117432,458.212189 
	C1240.370483,458.661804 1240.599487,458.820160 1240.926392,459.356995 
	C1240.940430,469.936096 1240.923462,480.040131 1240.662964,490.332764 
	C1240.581665,491.632751 1240.743774,492.744080 1240.932129,494.283997 
	C1240.943115,495.856903 1240.927734,497.001251 1240.630615,498.428223 
	C1240.536377,505.424835 1240.723755,512.138733 1240.930176,519.233521 
	C1240.935181,520.122437 1240.921143,520.630493 1240.675537,521.297241 
	C1240.598511,522.257874 1240.752808,523.059753 1240.933350,524.300781 
	C1240.942627,526.205383 1240.925415,527.670959 1240.676514,529.295410 
	C1240.599243,530.257324 1240.753662,531.060242 1240.934326,532.302490 
	C1240.943359,534.208252 1240.926147,535.674744 1240.664795,537.330078 
	C1240.583130,538.632080 1240.745605,539.745178 1240.934814,541.324829 
	C1240.944702,544.908569 1240.927979,548.025818 1240.651611,551.371826 
	C1240.565186,553.352844 1240.738281,555.104980 1240.930664,557.231506 
	C1240.936768,558.105347 1240.923584,558.604858 1240.713745,559.182373 
	C1240.276611,559.434204 1240.123657,559.665833 1239.615356,559.969238 
	C1238.343506,559.985413 1237.471436,560.159241 1236.692627,559.962830 
	C1230.359497,558.365601 1220.788086,561.815979 1220.768555,549.768616 
	C1220.077759,550.086731 1219.570557,550.615051 1219.063354,551.143311 
	C1217.961670,552.384766 1216.859863,553.626160 1215.173584,554.866089 
	C1213.413940,555.946472 1212.238647,557.028259 1211.063354,558.109985 
	C1211.063354,558.109985 1211.036743,558.020325 1210.682373,558.031494 
	C1206.000732,559.403687 1201.648804,560.692200 1197.356689,562.156067 
	C1195.184814,562.896790 1193.120972,563.954102 1191.008301,564.868286 
	C1190.554565,564.931824 1190.100830,564.995422 1189.078857,564.730469 
	C1187.014038,564.582092 1185.517456,564.762207 1184.020874,564.942383 
	C1183.260132,564.973938 1182.499390,565.005554 1181.313843,564.620483 
	C1180.145752,563.613281 1179.489624,562.752258 1178.643921,562.479797 
	C1175.188965,561.366333 1171.706421,560.301819 1168.173096,559.481873 
	C1166.048340,558.988708 1163.811157,558.979736 1161.624512,558.753174 
	C1161.624512,558.753174 1161.412476,558.655518 1161.497437,558.249939 
	C1160.070312,557.185181 1158.558228,556.526062 1157.046143,555.866943 
M1194.068848,542.990479 
	C1198.154907,541.362244 1202.628296,540.336060 1206.258667,537.999573 
	C1220.614868,528.759888 1223.310425,507.520355 1217.355469,492.850555 
	C1211.578003,478.617676 1198.350708,471.739441 1183.286621,474.802185 
	C1168.429688,477.822845 1159.993774,486.617188 1157.507812,503.493439 
	C1154.830200,521.671509 1165.798828,545.916626 1194.068848,542.990479 
z"/>
<path fill="#171717" opacity="1.000000" stroke="none" 
	d="
M738.008057,494.878113 
	C721.646851,494.932922 705.285706,494.987732 688.227783,494.749390 
	C686.695557,496.058411 685.147888,497.654114 685.133118,499.263885 
	C684.962158,517.925964 685.076111,536.590576 684.925659,555.252991 
	C684.912964,556.823730 683.616882,559.691956 682.786804,559.740723 
	C676.368164,560.117676 669.917480,559.948486 662.985168,559.948486 
	C662.985168,554.870789 662.985291,550.463562 662.985229,546.056396 
	C662.984436,502.230164 663.066956,458.403564 662.865601,414.578278 
	C662.843201,409.716431 664.502808,408.856415 668.860901,408.892639 
	C691.522278,409.080933 714.186157,408.979279 736.849121,408.979889 
	C750.039551,408.980255 750.039551,408.981354 750.009033,422.288025 
	C749.993652,428.992493 749.993652,429.001923 743.405457,429.003754 
	C726.074951,429.008575 708.744324,429.026154 691.413940,428.983246 
	C688.381042,428.975739 685.209595,429.167511 685.139160,432.957703 
	C684.916504,444.951233 685.000366,456.952087 685.171631,468.947205 
	C685.181641,469.645264 687.014771,470.317322 687.999512,471.001465 
	C704.695984,470.986816 721.392456,470.972168 738.638794,471.229797 
	C739.359558,471.747925 739.589783,471.908844 739.879333,471.984894 
	C739.928589,478.683868 739.977844,485.382843 739.647461,492.577637 
	C738.847961,493.675018 738.428040,494.276550 738.008057,494.878113 
z"/>
<path fill="#171717" opacity="1.000000" stroke="none" 
	d="
M800.873535,456.984528 
	C800.925659,491.016754 800.977783,525.048950 800.490845,559.536743 
	C795.122986,559.995178 790.269958,559.698914 785.472534,560.088013 
	C781.010742,560.449890 779.877136,558.913269 779.901428,554.517334 
	C780.082764,521.716125 779.995789,488.913422 779.992920,456.111206 
	C786.358459,456.062958 792.723999,456.014740 799.639709,456.235229 
	C800.359680,456.746826 800.587585,456.906982 800.873535,456.984528 
z"/>
<path fill="#0B0B0B" opacity="1.000000" stroke="none" 
	d="
M687.752441,470.590210 
	C687.014771,470.317322 685.181641,469.645264 685.171631,468.947205 
	C685.000366,456.952087 684.916504,444.951233 685.139160,432.957703 
	C685.209595,429.167511 688.381042,428.975739 691.413940,428.983246 
	C708.744324,429.026154 726.074951,429.008575 743.405457,429.003754 
	C749.993652,429.001923 749.993652,428.992493 750.009033,422.288025 
	C750.039551,408.981354 750.039551,408.980255 736.849121,408.979889 
	C714.186157,408.979279 691.522278,409.080933 668.860901,408.892639 
	C664.502808,408.856415 662.843201,409.716431 662.865601,414.578278 
	C663.066956,458.403564 662.984436,502.230164 662.985229,546.056396 
	C662.985291,550.463562 662.985168,554.870789 662.985168,559.948486 
	C669.917480,559.948486 676.368164,560.117676 682.786804,559.740723 
	C683.616882,559.691956 684.912964,556.823730 684.925659,555.252991 
	C685.076111,536.590576 684.962158,517.925964 685.133118,499.263885 
	C685.147888,497.654114 686.695557,496.058411 687.759521,494.714355 
	C687.804382,496.581055 687.463684,498.189331 687.461243,499.798126 
	C687.431335,519.621887 687.450745,539.445679 687.457397,559.269470 
	C687.457703,560.060425 687.457458,560.851379 687.457458,561.824829 
	C678.521118,561.824829 669.936829,561.824829 661.149719,561.824829 
	C661.149719,510.048523 661.149719,458.466675 661.149719,406.599426 
	C691.241455,406.599426 721.313171,406.599426 751.703003,406.599426 
	C751.703003,414.489594 751.703003,422.405365 751.703003,430.839752 
	C730.541443,430.839752 709.154785,430.839752 687.505310,430.839752 
	C687.505310,444.295563 687.505310,457.237274 687.752441,470.590210 
z"/>
<path fill="#171717" opacity="1.000000" stroke="none" 
	d="
M798.725464,406.115631 
	C805.871277,412.232941 807.696960,418.853058 804.523865,426.200043 
	C801.878784,432.324432 795.143555,436.463623 788.604492,435.983337 
	C781.047729,435.428253 775.025146,430.331604 773.414978,422.573120 
	C772.031006,415.904480 774.624634,410.419250 779.903809,406.419678 
	C785.827332,401.931976 792.128479,401.968506 798.725464,406.115631 
z"/>
<path fill="#171717" opacity="1.000000" stroke="none" 
	d="
M1021.882629,485.507202 
	C1026.375000,487.688538 1025.831177,492.394806 1025.883789,496.349060 
	C1026.140503,515.627808 1026.126709,534.913330 1025.904785,554.192993 
	C1025.853638,558.632629 1026.856079,560.531677 1031.640747,560.091125 
	C1036.223267,559.669128 1040.875366,560.000000 1046.000000,560.000000 
	C1046.000000,555.791199 1046.000000,551.509521 1046.000000,547.227844 
	C1046.000000,530.106567 1045.971924,512.985291 1046.016724,495.864136 
	C1046.030518,490.596741 1047.430908,485.805695 1051.869263,482.106506 
	C1048.695679,487.391235 1047.694336,493.239197 1047.748413,499.559662 
	C1047.925049,520.172302 1047.814697,540.787354 1047.814697,561.723328 
	C1040.112793,561.723328 1032.562500,561.723328 1024.738770,561.723328 
	C1024.738770,541.423401 1024.919312,521.139954 1024.610474,500.863922 
	C1024.534302,495.864899 1022.865601,490.890106 1021.882629,485.507202 
z"/>
<path fill="#0B0B0B" opacity="1.000000" stroke="none" 
	d="
M1240.908203,529.136475 
	C1240.925415,527.670959 1240.942627,526.205383 1240.943604,523.961731 
	C1240.920654,522.501892 1240.913818,521.820251 1240.906982,521.138550 
	C1240.921143,520.630493 1240.935181,520.122437 1240.939209,518.782104 
	C1240.923584,511.348419 1240.917969,504.746979 1240.912354,498.145569 
	C1240.927734,497.001251 1240.943115,495.856903 1240.942993,493.914734 
	C1240.920532,492.125977 1240.913574,491.135071 1240.906494,490.144135 
	C1240.923462,480.040131 1240.940430,469.936096 1240.835205,459.166992 
	C1240.540527,458.260529 1240.311646,458.099121 1240.026367,458.017578 
	C1234.272705,458.017578 1228.518921,458.017578 1223.720093,458.017578 
	C1222.018799,461.164307 1220.733032,463.542297 1219.447388,465.920288 
	C1218.303711,464.835510 1217.160156,463.750732 1216.029541,462.269897 
	C1217.110474,462.609497 1218.178589,463.345184 1219.695068,464.389801 
	C1219.695068,461.525574 1219.695068,458.983185 1219.695068,456.204285 
	C1227.382080,456.204285 1234.658691,456.204285 1242.278442,456.204285 
	C1242.278442,491.303986 1242.278442,526.454224 1242.278442,561.812378 
	C1234.943726,561.812378 1227.692993,561.812378 1219.996094,561.812378 
	C1219.996094,558.791809 1219.996094,555.854309 1220.281982,552.271240 
	C1220.696045,551.076721 1220.824097,550.527710 1220.952148,549.978760 
	C1220.788086,561.815979 1230.359497,558.365601 1236.692627,559.962830 
	C1237.471436,560.159241 1238.343506,559.985413 1239.805908,559.882446 
	C1240.676636,559.611633 1240.833618,559.385864 1240.910400,559.104309 
	C1240.923584,558.604858 1240.936768,558.105347 1240.940063,556.826294 
	C1240.923828,554.412170 1240.917603,552.777588 1240.911255,551.143005 
	C1240.927979,548.025818 1240.944702,544.908569 1240.944946,540.954956 
	C1240.921997,539.126099 1240.915405,538.133667 1240.908936,537.141174 
	C1240.926147,535.674744 1240.943359,534.208252 1240.944336,531.962952 
	C1240.921631,530.501526 1240.914917,529.819031 1240.908203,529.136475 
z"/>
<path fill="#0B0B0B" opacity="1.000000" stroke="none" 
	d="
M779.553223,456.048615 
	C779.995789,488.913422 780.082764,521.716125 779.901428,554.517334 
	C779.877136,558.913269 781.010742,560.449890 785.472534,560.088013 
	C790.269958,559.698914 795.122986,559.995178 800.412170,560.000122 
	C799.942383,560.677795 799.026855,561.903137 798.079590,561.928162 
	C791.604492,562.098999 785.122803,562.017700 778.288086,562.017700 
	C778.183228,560.652710 778.002625,559.394348 778.002014,558.135864 
	C777.986755,525.518860 777.975952,492.901855 778.037903,460.284973 
	C778.040588,458.851318 778.739075,457.418976 779.553223,456.048615 
z"/>
<path fill="#0B0B0B" opacity="1.000000" stroke="none" 
	d="
M927.103760,557.601807 
	C926.636047,556.088806 926.039917,554.194092 926.036438,552.298340 
	C925.978149,520.547729 925.993774,488.797058 926.000366,456.585754 
	C926.674927,457.557617 927.916504,458.987183 927.923706,460.423004 
	C928.043518,484.221954 928.073181,508.021973 927.973267,531.821167 
	C927.937683,540.288147 927.503418,548.753479 927.103760,557.601807 
z"/>
<path fill="#0B0B0B" opacity="1.000000" stroke="none" 
	d="
M956.033569,560.447144 
	C962.895508,560.006653 969.691223,560.006653 976.996704,560.006653 
	C976.996704,555.962463 976.996704,551.841003 976.996765,547.719543 
	C976.997009,530.736938 976.713196,513.746155 977.196533,496.777313 
	C977.317810,492.516571 979.900818,488.325958 981.714417,484.072021 
	C981.029663,488.985413 979.170227,493.915039 979.079651,498.876953 
	C978.724792,518.324402 978.928162,537.781982 978.924133,557.235840 
	C978.923828,558.688660 978.924011,560.141479 978.924011,561.916809 
	C971.312439,561.916809 964.046692,561.928040 956.781311,561.873413 
	C956.507507,561.871338 956.238525,561.230652 956.033569,560.447144 
z"/>
<path fill="#FA380C" opacity="1.000000" stroke="none" 
	d="
M442.722534,299.128693 
	C443.208557,299.614777 443.458954,300.033112 443.733276,300.692413 
	C420.639832,300.955627 397.521149,301.125641 374.405579,300.929047 
	C364.836548,300.847656 355.595886,302.055756 346.583221,305.225311 
	C345.361481,305.654999 344.013367,305.725281 342.311035,305.955811 
	C351.191284,300.927307 361.374878,299.426910 371.665039,299.279358 
	C394.461700,298.952454 417.265198,299.099121 440.628265,299.256470 
	C441.462738,299.360657 441.734833,299.261047 442.006927,299.161407 
	C442.006927,299.161407 442.486908,299.060913 442.722534,299.128693 
z"/>
<path fill="#0B0B0B" opacity="1.000000" stroke="none" 
	d="
M923.528442,456.054199 
	C922.672302,456.745178 921.381470,457.819153 920.026794,457.906647 
	C916.218140,458.152618 912.377136,457.865845 908.561462,458.049286 
	C906.819763,458.133057 904.079346,456.313049 903.683899,459.985046 
	C901.657959,459.577698 899.427185,459.581909 897.640869,458.692963 
	C889.159180,454.472382 880.199524,452.810455 871.003052,454.641815 
	C863.444580,456.147003 856.116943,458.811310 848.301270,460.956482 
	C865.234497,449.086975 883.160156,449.365509 901.577209,458.166321 
	C902.850159,455.911255 902.850159,455.911255 923.528442,456.054199 
z"/>
<path fill="#0B0B0B" opacity="1.000000" stroke="none" 
	d="
M1213.939087,460.533997 
	C1212.546875,460.715576 1210.708984,461.088867 1209.558716,460.366730 
	C1200.112183,454.436188 1190.164673,452.526794 1179.313599,455.685120 
	C1174.000366,457.231537 1168.531372,458.259064 1163.262329,459.929413 
	C1161.825317,460.384949 1160.857300,462.319794 1159.674072,463.575745 
	C1159.907104,463.973511 1160.140137,464.371307 1160.373169,464.769073 
	C1158.469849,464.506958 1156.566406,464.244843 1154.260010,463.967133 
	C1170.577881,449.414124 1196.519043,447.798706 1213.939087,460.533997 
z"/>
<path fill="#0B0B0B" opacity="1.000000" stroke="none" 
	d="
M834.673706,474.119446 
	C832.966675,480.541260 830.856323,487.118134 829.001953,493.766357 
	C826.200806,503.808899 828.278320,513.462769 831.976624,522.832642 
	C833.659485,527.096313 835.956421,531.117676 837.988647,535.620361 
	C822.770752,518.379150 821.444946,495.770721 834.673706,474.119446 
z"/>
<path fill="#FA380C" opacity="1.000000" stroke="none" 
	d="
M443.391510,440.021790 
	C443.846069,440.030823 443.902771,440.460632 443.840027,440.668335 
	C417.782227,440.825043 391.787170,440.774048 365.538239,440.726440 
	C354.183990,439.093140 343.516449,436.207550 333.851685,429.623169 
	C336.409943,430.346954 339.124756,431.428802 341.897949,432.331482 
	C346.895630,433.958160 351.846649,435.844727 356.959808,436.980835 
	C385.415314,443.303406 414.290649,438.522644 443.391510,440.021790 
z"/>
<path fill="#FA380C" opacity="1.000000" stroke="none" 
	d="
M309.582764,335.004150 
	C309.339874,336.687775 309.104034,338.719696 308.213531,340.405884 
	C301.993896,352.182556 301.029175,364.887665 302.207092,377.721954 
	C302.702576,383.120514 305.241608,388.322388 306.752808,393.641754 
	C307.285492,395.516693 307.523560,397.475311 307.778259,399.812531 
	C305.101654,392.158600 301.298065,384.244324 300.259949,375.982513 
	C298.453583,361.606476 301.994781,347.845612 309.582764,335.004150 
z"/>
<path fill="#0B0B0B" opacity="1.000000" stroke="none" 
	d="
M851.059082,546.386719 
	C856.652405,547.145447 862.438171,548.194641 868.218262,549.273926 
	C871.424805,549.872681 874.621826,550.521851 877.907593,551.511963 
	C868.574036,552.744751 859.647034,551.081604 851.059082,546.386719 
z"/>
<path fill="#0B0B0B" opacity="1.000000" stroke="none" 
	d="
M903.986206,544.412659 
	C907.990662,548.209656 905.677612,553.104248 905.392639,557.674988 
	C905.279480,559.490723 903.743530,561.217651 902.503174,562.988037 
	C902.735657,556.928711 903.320251,550.866272 903.986206,544.412659 
z"/>
<path fill="#0B0B0B" opacity="1.000000" stroke="none" 
	d="
M1097.955811,459.531860 
	C1097.686890,460.096985 1097.086670,460.644501 1096.953125,460.547791 
	C1091.065430,456.282776 1084.571655,453.863190 1077.242188,453.809418 
	C1076.887451,453.806793 1076.536987,453.203857 1076.096436,452.504120 
	C1084.069336,452.077393 1091.323975,454.511169 1097.955811,459.531860 
z"/>
<path fill="#0B0B0B" opacity="1.000000" stroke="none" 
	d="
M1191.419434,564.931763 
	C1193.120972,563.954102 1195.184814,562.896790 1197.356689,562.156067 
	C1201.648804,560.692200 1206.000732,559.403687 1210.721680,558.057007 
	C1204.687134,560.379272 1198.258911,562.687195 1191.419434,564.931763 
z"/>
<path fill="#0B0B0B" opacity="1.000000" stroke="none" 
	d="
M1071.568115,452.061401 
	C1071.663940,452.662476 1071.437012,453.552216 1070.993774,453.677612 
	C1064.562134,455.497192 1058.101440,457.214355 1051.257812,458.935791 
	C1056.882202,454.426758 1063.793213,452.565277 1071.568115,452.061401 
z"/>
<path fill="#0B0B0B" opacity="1.000000" stroke="none" 
	d="
M1161.914307,558.908630 
	C1163.811157,558.979736 1166.048340,558.988708 1168.173096,559.481873 
	C1171.706421,560.301819 1175.188965,561.366333 1178.643921,562.479797 
	C1179.489624,562.752258 1180.145752,563.613281 1180.940430,564.537231 
	C1174.729248,562.935181 1168.466675,560.999634 1161.914307,558.908630 
z"/>
<path fill="#0B0B0B" opacity="1.000000" stroke="none" 
	d="
M880.418579,551.930298 
	C881.427002,550.982300 882.740417,549.761414 884.285583,549.271851 
	C888.231750,548.021484 892.281128,547.097107 896.683472,546.043213 
	C891.661499,548.026184 886.245300,550.008301 880.418579,551.930298 
z"/>
<path fill="#0B0B0B" opacity="1.000000" stroke="none" 
	d="
M923.336914,572.796143 
	C924.081360,568.731384 925.113098,564.443054 926.502869,560.081726 
	C925.781982,564.196655 924.703125,568.384583 923.336914,572.796143 
z"/>
<path fill="#0B0B0B" opacity="1.000000" stroke="none" 
	d="
M1047.624023,461.006226 
	C1045.846191,463.264130 1043.749756,465.628265 1041.287109,467.983337 
	C1043.049072,465.686981 1045.177246,463.399719 1047.624023,461.006226 
z"/>
<path fill="#171717" opacity="1.000000" stroke="none" 
	d="
M1075.339355,474.104248 
	C1079.435669,471.915253 1082.093018,474.870544 1084.911377,477.804016 
	C1081.847168,476.857452 1078.756348,475.552429 1075.339355,474.104248 
z"/>
<path fill="#171717" opacity="1.000000" stroke="none" 
	d="
M1056.412109,478.052948 
	C1057.998535,474.187164 1061.428833,473.168915 1065.735352,473.673065 
	C1062.902832,475.268036 1059.830322,476.600861 1056.412109,478.052948 
z"/>
<path fill="#0B0B0B" opacity="1.000000" stroke="none" 
	d="
M1106.946045,467.566895 
	C1104.721313,465.780518 1102.391357,463.679718 1100.053101,461.222778 
	C1102.310181,462.995239 1104.575562,465.123840 1106.946045,467.566895 
z"/>
<path fill="#0B0B0B" opacity="1.000000" stroke="none" 
	d="
M975.501953,463.658722 
	C974.972473,461.716553 974.483765,459.334351 974.001404,456.535339 
	C977.954224,457.742706 974.798462,460.902222 975.501953,463.658722 
z"/>
<path fill="#0B0B0B" opacity="1.000000" stroke="none" 
	d="
M1152.615723,464.911926 
	C1151.457886,466.495667 1149.993164,468.211853 1148.164795,469.929474 
	C1149.303833,468.302032 1150.806396,466.673187 1152.615723,464.911926 
z"/>
<path fill="#171717" opacity="1.000000" stroke="none" 
	d="
M1007.298401,474.183899 
	C1008.957336,474.466034 1010.915344,474.930267 1012.906006,475.748810 
	C1011.158203,475.524078 1009.377869,474.945038 1007.298401,474.183899 
z"/>
<path fill="#0B0B0B" opacity="1.000000" stroke="none" 
	d="
M1157.289307,556.069763 
	C1158.558228,556.526062 1160.070312,557.185181 1161.411743,558.170654 
	C1160.004883,557.755493 1158.768555,557.014038 1157.289307,556.069763 
z"/>
<path fill="#0B0B0B" opacity="1.000000" stroke="none" 
	d="
M841.088379,539.314087 
	C842.610840,540.125366 844.270935,541.235046 845.947083,542.706665 
	C844.384094,541.916626 842.805115,540.764587 841.088379,539.314087 
z"/>
<path fill="#0B0B0B" opacity="1.000000" stroke="none" 
	d="
M897.346069,546.004028 
	C898.272705,544.849365 899.508362,543.630066 901.086426,542.607910 
	C900.170898,543.849792 898.912964,544.894531 897.346069,546.004028 
z"/>
<path fill="#0B0B0B" opacity="1.000000" stroke="none" 
	d="
M1184.319092,565.039185 
	C1185.517456,564.762207 1187.014038,564.582092 1188.739746,564.663330 
	C1187.518433,564.995178 1186.067749,565.065552 1184.319092,565.039185 
z"/>
<path fill="#0B0B0B" opacity="1.000000" stroke="none" 
	d="
M837.922974,469.814697 
	C837.320251,471.050934 836.499939,472.488556 835.310425,473.947571 
	C835.862610,472.651337 836.783997,471.333710 837.922974,469.814697 
z"/>
<path fill="#171717" opacity="1.000000" stroke="none" 
	d="
M999.412964,473.961060 
	C1000.252319,471.117371 1001.929077,471.295959 1003.926392,473.542542 
	C1002.608276,473.938660 1001.216980,473.984894 999.412964,473.961060 
z"/>
<path fill="#FA380C" opacity="1.000000" stroke="none" 
	d="
M308.932037,403.399597 
	C309.900116,404.509033 310.933441,405.951050 311.933960,407.776733 
	C310.933167,406.684326 309.965240,405.208282 308.932037,403.399597 
z"/>
<path fill="#0B0B0B" opacity="1.000000" stroke="none" 
	d="
M846.098755,543.326660 
	C847.576660,543.829773 849.230652,544.615356 850.906006,545.763428 
	C849.376465,545.287048 847.825684,544.448120 846.098755,543.326660 
z"/>
<path fill="#0B0B0B" opacity="1.000000" stroke="none" 
	d="
M989.353882,476.969971 
	C990.435486,476.017517 991.855774,475.003906 993.639893,474.198517 
	C994.003723,474.406769 993.990601,474.847748 993.990601,474.847717 
	C992.557861,475.534729 991.125122,476.221771 989.353882,476.969971 
z"/>
<path fill="#0B0B0B" opacity="1.000000" stroke="none" 
	d="
M1211.380127,558.028320 
	C1212.238647,557.028259 1213.413940,555.946472 1214.874023,554.964783 
	C1214.005005,556.025452 1212.850830,556.986023 1211.380127,558.028320 
z"/>
<path fill="#0B0B0B" opacity="1.000000" stroke="none" 
	d="
M847.642578,461.001007 
	C846.860168,461.939606 845.763062,462.957214 844.292114,463.974091 
	C845.054749,463.008911 846.191345,462.044464 847.642578,461.001007 
z"/>
<path fill="#171717" opacity="1.000000" stroke="none" 
	d="
M1068.396484,473.963562 
	C1068.871582,471.264374 1070.241821,471.506683 1071.933838,473.557831 
	C1070.930664,473.940186 1069.861816,473.986694 1068.396484,473.963562 
z"/>
<path fill="#0B0B0B" opacity="1.000000" stroke="none" 
	d="
M902.002563,542.218872 
	C902.191895,541.456238 902.575928,540.503479 902.959961,539.550659 
	C903.448425,539.915955 903.936951,540.281250 904.191589,540.833679 
	C903.370911,541.356873 902.784058,541.692810 902.002563,542.218872 
z"/>
<path fill="#FA380C" opacity="1.000000" stroke="none" 
	d="
M313.999207,411.350708 
	C314.862732,411.923218 315.829041,412.793854 316.655090,414.025085 
	C315.710541,413.473450 314.906250,412.561157 313.999207,411.350708 
z"/>
<path fill="#171717" opacity="1.000000" stroke="none" 
	d="
M994.307678,474.890259 
	C993.990601,474.847748 994.003723,474.406769 994.009888,474.185852 
	C994.879456,473.796448 995.742859,473.627960 996.791687,473.700165 
	C996.193054,474.271454 995.408936,474.602112 994.307678,474.890259 
z"/>
<path fill="#2F92FF" opacity="1.000000" stroke="none" 
	d="
M443.871460,581.567749 
	C442.194275,581.770447 440.567352,581.780823 438.553802,581.702881 
	C439.809601,581.415344 441.451965,581.216064 443.469238,581.001099 
	C443.844116,580.985352 443.921722,581.375366 443.871460,581.567749 
z"/>
<path fill="#FA380C" opacity="1.000000" stroke="none" 
	d="
M311.923279,408.391907 
	C312.542572,408.848328 313.254486,409.604523 313.954651,410.734100 
	C313.300629,410.302185 312.658295,409.496918 311.923279,408.391907 
z"/>
<path fill="#FA380C" opacity="1.000000" stroke="none" 
	d="
M330.824890,427.649994 
	C331.672516,427.807739 332.688599,428.234314 333.730499,429.037903 
	C332.835327,428.916199 331.914307,428.417480 330.824890,427.649994 
z"/>
<path fill="#171717" opacity="1.000000" stroke="none" 
	d="
M1013.056396,476.343628 
	C1013.886780,476.517517 1014.882446,476.961090 1015.914978,477.767151 
	C1015.041809,477.624207 1014.131775,477.118774 1013.056396,476.343628 
z"/>
<path fill="#0B0B0B" opacity="1.000000" stroke="none" 
	d="
M986.375244,479.126770 
	C986.821228,478.512695 987.556824,477.780853 988.665771,477.034607 
	C988.247681,477.683136 987.456299,478.346039 986.375244,479.126770 
z"/>
<path fill="#0B0B0B" opacity="1.000000" stroke="none" 
	d="
M982.321960,483.925140 
	C982.526062,483.092407 983.003723,482.100739 983.850952,481.092743 
	C983.678894,481.972992 983.137207,482.869598 982.321960,483.925140 
z"/>
<path fill="#0B0B0B" opacity="1.000000" stroke="none" 
	d="
M1050.597900,458.911194 
	C1050.161865,459.566803 1049.398926,460.263397 1048.265625,460.948425 
	C1048.687256,460.275299 1049.479126,459.613739 1050.597900,458.911194 
z"/>
<path fill="#171717" opacity="1.000000" stroke="none" 
	d="
M1019.922485,482.371674 
	C1020.531616,482.846588 1021.233765,483.627563 1021.907593,484.784760 
	C1021.258057,484.333252 1020.636719,483.505493 1019.922485,482.371674 
z"/>
<path fill="#0B0B0B" opacity="1.000000" stroke="none" 
	d="
M840.672180,466.923279 
	C840.367249,467.719269 839.800598,468.627655 838.895874,469.343628 
	C839.175354,468.445984 839.792969,467.740845 840.672180,466.923279 
z"/>
<path fill="#FA380C" opacity="1.000000" stroke="none" 
	d="
M312.670959,330.052124 
	C312.500305,330.889954 312.064453,331.898254 311.264832,332.929810 
	C311.402588,332.042908 311.904175,331.132751 312.670959,330.052124 
z"/>
<path fill="#2D2D2D" opacity="1.000000" stroke="none" 
	d="
M1220.768555,549.768616 
	C1220.824097,550.527710 1220.696045,551.076721 1220.351562,551.814941 
	C1219.957031,551.696228 1219.779175,551.388306 1219.332275,551.111877 
	C1219.570557,550.615051 1220.077759,550.086731 1220.768555,549.768616 
z"/>
<path fill="#171717" opacity="1.000000" stroke="none" 
	d="
M1087.940308,481.334015 
	C1088.426880,481.552612 1088.995850,482.051392 1089.360107,482.747131 
	C1088.777832,482.500824 1088.400269,482.057495 1087.940308,481.334015 
z"/>
<path fill="#0B0B0B" opacity="1.000000" stroke="none" 
	d="
M738.368103,494.942932 
	C738.428040,494.276550 738.847961,493.675018 739.569458,493.041016 
	C739.489990,493.674957 739.109070,494.341370 738.368103,494.942932 
z"/>
<path fill="#FA380C" opacity="1.000000" stroke="none" 
	d="
M314.386169,327.786255 
	C314.298187,328.395386 313.951538,329.150421 313.244446,329.924255 
	C313.298492,329.272766 313.712982,328.602478 314.386169,327.786255 
z"/>
<path fill="#FA380C" opacity="1.000000" stroke="none" 
	d="
M323.999512,422.324860 
	C324.796692,422.582123 325.757111,423.118530 326.748962,424.017883 
	C325.907837,423.788544 325.035309,423.196259 323.999512,422.324860 
z"/>
<path fill="#FA380C" opacity="1.000000" stroke="none" 
	d="
M326.781555,424.599457 
	C327.393250,424.703033 328.145508,425.069946 328.904114,425.801056 
	C328.247650,425.731079 327.584900,425.296936 326.781555,424.599457 
z"/>
<path fill="#0B0B0B" opacity="1.000000" stroke="none" 
	d="
M978.631714,461.893494 
	C978.456055,462.481140 977.991211,463.188629 977.169861,463.916138 
	C977.323059,463.295197 977.832764,462.654266 978.631714,461.893494 
z"/>
<path fill="#FA380C" opacity="1.000000" stroke="none" 
	d="
M307.569458,400.601196 
	C308.021210,400.977631 308.490173,401.682037 308.943298,402.758606 
	C308.480499,402.396912 308.033600,401.663055 307.569458,400.601196 
z"/>
<path fill="#FA380C" opacity="1.000000" stroke="none" 
	d="
M310.704773,333.078247 
	C310.761169,333.494568 310.573395,334.095184 310.085876,334.823730 
	C310.010895,334.388641 310.235748,333.825623 310.704773,333.078247 
z"/>
<path fill="#FA380C" opacity="1.000000" stroke="none" 
	d="
M328.989502,426.366882 
	C329.448303,426.305084 330.055756,426.515564 330.726562,427.064819 
	C330.239319,427.148773 329.688721,426.893951 328.989502,426.366882 
z"/>
<path fill="#FA380C" opacity="1.000000" stroke="none" 
	d="
M341.669861,305.935974 
	C341.485443,306.236359 340.993317,306.574097 340.176697,306.915710 
	C340.355499,306.604156 340.858826,306.288727 341.669861,305.935974 
z"/>
<path fill="#FA380C" opacity="1.000000" stroke="none" 
	d="
M316.612244,414.596344 
	C317.013000,414.684021 317.470093,415.066132 317.928284,415.788666 
	C317.509125,415.716339 317.088867,415.303528 316.612244,414.596344 
z"/>
<path fill="#FA380C" opacity="1.000000" stroke="none" 
	d="
M314.841095,327.122437 
	C315.135590,327.219727 315.267883,327.438538 315.400177,327.657379 
	C315.264099,327.691498 315.128052,327.725616 314.778809,327.696472 
	C314.565643,327.633240 314.678894,327.244019 314.841095,327.122437 
z"/>
<path fill="#FA380C" opacity="1.000000" stroke="none" 
	d="
M339.699158,306.879517 
	C339.711151,307.042786 339.488220,307.245453 339.153076,307.292664 
	C339.040833,307.137207 339.464264,306.918915 339.699158,306.879517 
z"/>
<path fill="#FA380C" opacity="1.000000" stroke="none" 
	d="
M320.898102,419.313232 
	C321.095825,419.251282 321.419312,419.443420 321.850525,419.904175 
	C321.646790,419.971008 321.335327,419.769135 320.898102,419.313232 
z"/>
<path fill="#FA380C" opacity="1.000000" stroke="none" 
	d="
M317.964478,416.292542 
	C318.160492,416.248199 318.457153,416.464386 318.852478,416.944458 
	C318.655853,416.989899 318.360474,416.771484 317.964478,416.292542 
z"/>
<path fill="#FA380C" opacity="1.000000" stroke="none" 
	d="
M321.930573,420.310730 
	C322.135101,420.258148 322.444397,420.469727 322.849915,420.952881 
	C322.642548,421.007965 322.338959,420.791443 321.930573,420.310730 
z"/>
<path fill="#0B0B0B" opacity="1.000000" stroke="none" 
	d="
M800.908875,456.711243 
	C800.587585,456.906982 800.359680,456.746826 800.104004,456.309753 
	C800.326843,456.222961 800.635559,456.330444 800.908875,456.711243 
z"/>
<path fill="#0B0B0B" opacity="1.000000" stroke="none" 
	d="
M956.700195,456.074158 
	C956.904236,456.409973 956.734863,456.644806 956.274170,456.902283 
	C956.185303,456.671021 956.299927,456.353790 956.700195,456.074158 
z"/>
<path fill="#0B0B0B" opacity="1.000000" stroke="none" 
	d="
M739.915344,471.710571 
	C739.589783,471.908844 739.359558,471.747925 739.103149,471.305634 
	C739.328857,471.218170 739.640137,471.327209 739.915344,471.710571 
z"/>
<path fill="#FB5329" opacity="1.000000" stroke="none" 
	d="
M441.753479,299.093475 
	C441.734833,299.261047 441.462738,299.360657 441.093262,299.315796 
	C441.163971,299.122742 441.332001,299.074158 441.753479,299.093475 
z"/>
<path fill="#2F92FF" opacity="1.000000" stroke="none" 
	d="
M425.530212,581.451538 
	C423.228577,581.684021 420.609009,581.745789 417.566467,581.720703 
	C419.833099,581.516113 422.522675,581.398438 425.530212,581.451538 
z"/>
<path fill="#2F92FF" opacity="1.000000" stroke="none" 
	d="
M375.540894,581.486206 
	C374.510132,581.712585 373.228424,581.776489 371.570465,581.772827 
	C372.559448,581.578003 373.924713,581.450867 375.540894,581.486206 
z"/>
<path fill="#2F92FF" opacity="1.000000" stroke="none" 
	d="
M387.601715,581.462158 
	C387.132690,581.670593 386.477478,581.734253 385.502441,581.717651 
	C385.926910,581.530762 386.671234,581.424133 387.601715,581.462158 
z"/>
<path fill="#2F92FF" opacity="1.000000" stroke="none" 
	d="
M430.630188,581.457886 
	C430.153564,581.664001 429.485016,581.725525 428.490601,581.705811 
	C428.922546,581.520813 429.680420,581.417053 430.630188,581.457886 
z"/>
<path fill="#2F92FF" opacity="1.000000" stroke="none" 
	d="
M435.661194,581.440552 
	C435.167999,581.649353 434.479340,581.709351 433.457092,581.672546 
	C433.904205,581.481018 434.684967,581.386353 435.661194,581.440552 
z"/>
<path fill="#2F92FF" opacity="1.000000" stroke="none" 
	d="
M368.692627,581.579346 
	C368.501984,581.844177 368.178650,581.894714 367.607971,581.812378 
	C367.772461,581.652100 368.172241,581.547302 368.692627,581.579346 
z"/>
<path fill="#2F92FF" opacity="1.000000" stroke="none" 
	d="
M380.705292,581.545349 
	C380.738342,581.632263 380.496796,581.733337 380.379089,581.686340 
	C380.322510,581.424255 380.459473,581.363953 380.705292,581.545349 
z"/>
<path fill="#2F92FF" opacity="1.000000" stroke="none" 
	d="
M390.786377,581.508057 
	C390.851196,581.600952 390.504211,581.707397 390.334045,581.652893 
	C390.290894,581.367920 390.476807,581.306824 390.786377,581.508057 
z"/>
<path fill="#171717" opacity="1.000000" stroke="none" 
	d="
M1043.492065,511.664948 
	C1044.036255,512.010132 1044.362549,512.570557 1044.688843,513.130981 
	C1044.409790,513.258545 1044.130615,513.386169 1043.851562,513.513733 
	C1043.659058,512.969238 1043.466553,512.424744 1043.492065,511.664948 
z"/>
<path fill="#171717" opacity="1.000000" stroke="none" 
	d="
M1044.525879,538.691650 
	C1044.531616,539.448242 1044.326172,539.985107 1044.120850,540.522034 
	C1043.846069,540.386780 1043.571289,540.251587 1043.296509,540.116455 
	C1043.635986,539.568237 1043.975342,539.020020 1044.525879,538.691650 
z"/>
<path fill="#FEFEFE" opacity="1.000000" stroke="none" 
	d="
M849.530640,503.659668 
	C849.563171,491.591003 853.846802,482.064117 864.615356,476.820221 
	C874.702881,471.907867 884.913452,472.661530 894.208496,479.211670 
	C904.169312,486.231079 907.689453,500.524536 902.824768,512.716797 
	C898.196350,524.317078 885.906128,532.109680 874.664062,530.572083 
	C861.117004,528.719238 851.437256,519.131287 849.896790,506.046661 
	C849.819092,505.386505 849.692200,504.732147 849.530640,503.659668 
z"/>
<path fill="#FEFEFE" opacity="1.000000" stroke="none" 
	d="
M1193.616821,543.031799 
	C1165.798828,545.916626 1154.830200,521.671509 1157.507812,503.493439 
	C1159.993774,486.617188 1168.429688,477.822845 1183.286621,474.802185 
	C1198.350708,471.739441 1211.578003,478.617676 1217.355469,492.850555 
	C1223.310425,507.520355 1220.614868,528.759888 1206.258667,537.999573 
	C1202.628296,540.336060 1198.154907,541.362244 1193.616821,543.031799 
z"/>
<path fill="#2D2D2D" opacity="1.000000" stroke="none" 
	d="
M1240.630615,498.428223 
	C1240.917969,504.746979 1240.923584,511.348419 1240.920166,518.401245 
	C1240.723755,512.138733 1240.536377,505.424835 1240.630615,498.428223 
z"/>
<path fill="#2D2D2D" opacity="1.000000" stroke="none" 
	d="
M1240.651611,551.371826 
	C1240.917603,552.777588 1240.923828,554.412170 1240.920776,556.451904 
	C1240.738281,555.104980 1240.565186,553.352844 1240.651611,551.371826 
z"/>
<path fill="#2D2D2D" opacity="1.000000" stroke="none" 
	d="
M1240.664795,537.330078 
	C1240.915405,538.133667 1240.921997,539.126099 1240.918213,540.488403 
	C1240.745605,539.745178 1240.583130,538.632080 1240.664795,537.330078 
z"/>
<path fill="#2D2D2D" opacity="1.000000" stroke="none" 
	d="
M1240.663086,490.332764 
	C1240.913574,491.135071 1240.920532,492.125977 1240.916748,493.486176 
	C1240.743774,492.744080 1240.581665,491.632751 1240.663086,490.332764 
z"/>
<path fill="#2D2D2D" opacity="1.000000" stroke="none" 
	d="
M1240.676514,529.295410 
	C1240.914917,529.819031 1240.921631,530.501526 1240.918213,531.523560 
	C1240.753662,531.060242 1240.599243,530.257324 1240.676514,529.295410 
z"/>
<path fill="#2D2D2D" opacity="1.000000" stroke="none" 
	d="
M1240.675537,521.297241 
	C1240.913818,521.820251 1240.920654,522.501892 1240.917236,523.522644 
	C1240.752808,523.059753 1240.598511,522.257874 1240.675537,521.297241 
z"/>
<path fill="#2D2D2D" opacity="1.000000" stroke="none" 
	d="
M1240.713745,559.182373 
	C1240.833618,559.385864 1240.676636,559.611633 1240.248901,559.868530 
	C1240.123657,559.665833 1240.276611,559.434204 1240.713745,559.182373 
z"/>
<path fill="#2D2D2D" opacity="1.000000" stroke="none" 
	d="
M1240.117432,458.212189 
	C1240.311646,458.099121 1240.540527,458.260529 1240.804077,458.691864 
	C1240.599487,458.820160 1240.370483,458.661804 1240.117432,458.212189 
z"/>
</svg>